<?xml version="1.0" encoding="utf-8"?>
<!-- Generator: Adobe Illustrator 27.0.0, SVG Export Plug-In . SVG Version: 6.00 Build 0)  -->
<svg version="1.1" id="Layer_1" xmlns="http://www.w3.org/2000/svg" xmlns:xlink="http://www.w3.org/1999/xlink" x="0px" y="0px"
	 viewBox="0 0 48 48" style="enable-background:new 0 0 48 48;" xml:space="preserve">
<style type="text/css">
	.st0{fill:#010101;}
</style>
<g>
	<path d="M26.6,0.5c0.1,0.2,0.2,0.1,0.4,0.1c3.6,0.2,7.2,0.7,10.6,1.9c1.8,0.6,3.4,1.4,4.8,2.7C43,6,43.4,6.8,43.4,7.8
		c0,1.7-0.1,3.3,0,5c0.1,1.5-0.6,2.5-1.7,3.4c-1.7,1.4-3.8,2.1-5.9,2.7c-4.6,1.3-9.2,1.6-13.9,1.4c-3.4-0.1-6.7-0.6-9.9-1.5
		c-2-0.6-3.9-1.3-5.5-2.6c-1.2-0.9-1.9-2-1.8-3.6c0.1-1.5,0.1-3.1,0-4.6C4.6,6.6,5.2,5.6,6.3,4.7c1.7-1.4,3.7-2.1,5.8-2.7
		C15,1.2,18,0.8,20.9,0.6c0.1,0,0.3,0.1,0.3-0.1C23,0.5,24.8,0.5,26.6,0.5z"/>
	<path class="st0" d="M43.4,31.1c0,2.9,0,5.8,0,8.8c0,1.5-0.6,2.5-1.7,3.4c-1.7,1.4-3.7,2.1-5.8,2.7c-4.7,1.3-9.4,1.6-14.3,1.4
		c-3.3-0.1-6.5-0.6-9.7-1.5c-2-0.6-3.9-1.3-5.5-2.6c-1.1-0.9-1.8-2-1.8-3.5c0.1-2.9,0-5.8,0-8.7c1.3,2.7,3.8,3.6,6.3,4.5
		c3.3,1.1,6.7,1.6,10.1,1.8c2.8,0.2,5.6,0.1,8.4-0.2c3.4-0.4,6.8-1,9.9-2.5c1.2-0.5,2.3-1.2,3.2-2.2C42.9,32,43.1,31.6,43.4,31.1z"
		/>
	<path class="st0" d="M4.6,17.5c0.6,1.4,1.7,2.3,3,3c2.2,1.2,4.6,1.9,7,2.4c4.6,0.9,9.3,1.1,14,0.7c3.3-0.3,6.5-0.9,9.5-2.1
		c1.6-0.6,3.1-1.4,4.3-2.7c0.4-0.4,0.6-0.9,0.9-1.4c0,0.1,0,0.3,0,0.4c0,2.8,0,5.5,0,8.3c0,1.5-0.6,2.6-1.7,3.5
		c-1.5,1.2-3.2,1.9-5,2.5c-2.5,0.8-5.1,1.2-7.7,1.5c-2.9,0.3-5.8,0.3-8.7,0.1c-3.7-0.3-7.4-0.9-10.8-2.3c-1.4-0.6-2.7-1.3-3.7-2.3
		c-0.7-0.7-1.1-1.5-1.1-2.6C4.6,23.5,4.6,20.5,4.6,17.5z"/>
</g>
</svg>
